<?xml version="1.0" encoding="utf-8"?>
<!-- Generator: Adobe Illustrator 27.0.0, SVG Export Plug-In . SVG Version: 6.00 Build 0)  -->
<svg version="1.1" id="Layer_1" xmlns="http://www.w3.org/2000/svg" xmlns:xlink="http://www.w3.org/1999/xlink" x="0px" y="0px"
	 viewBox="0 0 209.77 85.7" style="enable-background:new 0 0 209.77 85.7;" xml:space="preserve">
<style type="text/css">
	.st0{fill:#121212;}
	.st1{fill:#77787B;}
	.st2{fill:none;stroke:#404041;stroke-width:1.4793;stroke-linecap:round;stroke-miterlimit:10;}
</style>
<g>
	<g>
		<g>
			<path class="st0" d="M118.18,45.4l1.63,1.22c-0.75,1.43-1.78,2.54-3.09,3.31c-1.33,0.76-2.8,1.14-4.4,1.14
				c-2.44,0-4.46-0.82-6.06-2.45c-1.6-1.63-2.4-3.7-2.4-6.2c0-2.48,0.8-4.54,2.41-6.17c1.57-1.65,3.59-2.47,6.05-2.47
				c1.49,0,2.87,0.33,4.11,1s2.26,1.61,3.03,2.84l-1.72,1.25c-0.22-0.46-0.52-0.89-0.9-1.31c-0.4-0.4-0.83-0.73-1.31-1.01
				c-0.98-0.56-2.05-0.84-3.22-0.84c-1.85,0-3.37,0.64-4.56,1.91c-1.21,1.27-1.81,2.87-1.81,4.8c0,1.96,0.6,3.57,1.81,4.82
				c1.19,1.26,2.71,1.89,4.56,1.89c1.29,0,2.43-0.32,3.43-0.96C116.73,47.56,117.54,46.63,118.18,45.4z"/>
			<path class="st0" d="M120.98,50.64l8-16.49h1.68l8.09,16.49h-2.18l-2.23-4.43h-9.02l-2.15,4.43H120.98z M126.22,44.27h7.22
				l-3.63-7.3L126.22,44.27z"/>
			<path class="st0" d="M141.14,50.64V34.16h9.34c1.6,0,2.87,0.4,3.78,1.19c0.91,0.79,1.37,1.88,1.37,3.28
				c0,1.42-0.45,2.58-1.34,3.47s-2.07,1.34-3.52,1.34h-7.59v7.21H141.14z M143.19,41.5h7.18c1.04,0,1.82-0.23,2.35-0.69
				c0.51-0.44,0.76-1.1,0.76-2c0-0.9-0.25-1.59-0.76-2.07c-0.55-0.46-1.29-0.69-2.23-0.69h-7.3V41.5z"/>
			<path class="st0" d="M159.02,50.64V34.06h2.06v16.58H159.02z"/>
			<path class="st0" d="M168.79,50.64V36.06h-6.84v-1.9h15.77v1.9h-6.86v14.58H168.79z"/>
			<path class="st0" d="M176.13,50.64l8-16.49h1.68l8.09,16.49h-2.18l-2.23-4.43h-9.02l-2.15,4.43H176.13z M181.38,44.27h7.22
				l-3.63-7.3L181.38,44.27z"/>
			<path class="st0" d="M196.4,50.64V34.16h2.03v14.58h10.65v1.9H196.4z"/>
			<path class="st0" d="M102.69,68.21l5.2-10.72h1.09l5.26,10.72h-1.42l-1.45-2.88h-5.86l-1.4,2.88H102.69z M106.1,64.07h4.7
				l-2.36-4.75L106.1,64.07z"/>
			<path class="st0" d="M114.86,66.59l0.76-1.14c0.76,0.59,1.55,1.04,2.36,1.34c0.81,0.31,1.61,0.47,2.4,0.47
				c0.98,0,1.78-0.21,2.39-0.62c0.61-0.42,0.92-0.96,0.92-1.62c0-0.52-0.22-0.95-0.67-1.3c-0.21-0.16-0.47-0.3-0.78-0.43
				c-0.33-0.11-0.68-0.16-1.04-0.16l-0.79-0.06c-0.8,0-1.49-0.06-2.07-0.19c-0.59-0.12-1.1-0.27-1.51-0.45
				c-0.52-0.26-0.88-0.57-1.11-0.93c-0.26-0.35-0.39-0.78-0.39-1.28c0-0.86,0.38-1.57,1.15-2.13c0.77-0.55,1.75-0.83,2.94-0.83
				c0.9,0,1.78,0.15,2.65,0.45c0.87,0.31,1.68,0.74,2.44,1.3l-0.77,1.12c-0.64-0.52-1.32-0.91-2.05-1.2
				c-0.73-0.27-1.48-0.41-2.24-0.41c-0.77,0-1.41,0.16-1.94,0.47c-0.54,0.32-0.81,0.72-0.81,1.2c0,0.17,0.04,0.33,0.12,0.47
				c0.07,0.15,0.12,0.24,0.16,0.29c0.04,0.05,0.12,0.11,0.24,0.17c0.23,0.19,0.58,0.34,1.06,0.45c0.47,0.12,1.06,0.18,1.76,0.18
				l1.55,0.13c1.08,0.12,1.93,0.47,2.55,1.05s0.94,1.29,0.94,2.13c0,1-0.43,1.83-1.28,2.48c-0.87,0.65-1.99,0.97-3.39,0.97
				c-0.52,0-1.02-0.04-1.53-0.12c-0.5-0.08-0.98-0.19-1.44-0.35C116.57,67.73,115.71,67.25,114.86,66.59z"/>
			<path class="st0" d="M126.61,66.59l0.76-1.14c0.76,0.59,1.55,1.04,2.36,1.34c0.81,0.31,1.61,0.47,2.4,0.47
				c0.98,0,1.78-0.21,2.39-0.62c0.61-0.42,0.92-0.96,0.92-1.62c0-0.52-0.22-0.95-0.67-1.3c-0.21-0.16-0.47-0.3-0.78-0.43
				c-0.33-0.11-0.68-0.16-1.04-0.16l-0.79-0.06c-0.8,0-1.49-0.06-2.07-0.19c-0.59-0.12-1.1-0.27-1.51-0.45
				c-0.52-0.26-0.88-0.57-1.11-0.93c-0.26-0.35-0.39-0.78-0.39-1.28c0-0.86,0.38-1.57,1.15-2.13c0.77-0.55,1.75-0.83,2.94-0.83
				c0.9,0,1.78,0.15,2.65,0.45c0.87,0.31,1.68,0.74,2.44,1.3l-0.77,1.12c-0.64-0.52-1.32-0.91-2.05-1.2
				c-0.73-0.27-1.48-0.41-2.24-0.41c-0.77,0-1.41,0.16-1.94,0.47c-0.54,0.32-0.81,0.72-0.81,1.2c0,0.17,0.04,0.33,0.12,0.47
				c0.07,0.15,0.12,0.24,0.16,0.29c0.04,0.05,0.12,0.11,0.24,0.17c0.23,0.19,0.58,0.34,1.06,0.45c0.47,0.12,1.06,0.18,1.76,0.18
				l1.55,0.13c1.08,0.12,1.93,0.47,2.55,1.05s0.94,1.29,0.94,2.13c0,1-0.43,1.83-1.28,2.48c-0.87,0.65-1.99,0.97-3.39,0.97
				c-0.52,0-1.02-0.04-1.53-0.12c-0.5-0.08-0.98-0.19-1.44-0.35C128.32,67.73,127.46,67.25,126.61,66.59z"/>
			<path class="st0" d="M144.01,68.49c-1.58,0-2.9-0.53-3.94-1.59c-1.04-1.06-1.56-2.4-1.56-4.03c0-1.61,0.52-2.95,1.56-4.01
				c1.02-1.07,2.33-1.6,3.93-1.6c1.57,0,2.88,0.54,3.93,1.6c1.04,1.06,1.57,2.4,1.57,4.01c0,0.8-0.13,1.54-0.39,2.21
				c-0.26,0.69-0.65,1.3-1.18,1.83C146.91,67.96,145.6,68.49,144.01,68.49z M144.01,67.23c1.19,0,2.18-0.41,2.96-1.23
				c0.77-0.81,1.15-1.86,1.15-3.13c0-1.25-0.38-2.29-1.13-3.12c-0.77-0.83-1.77-1.24-2.98-1.24c-1.2,0-2.19,0.41-2.96,1.24
				c-0.79,0.83-1.18,1.87-1.18,3.12c0,1.27,0.39,2.32,1.18,3.13C141.82,66.82,142.81,67.23,144.01,67.23z"/>
			<path class="st0" d="M160.31,64.8l1.06,0.79c-0.49,0.93-1.16,1.65-2.01,2.15c-0.87,0.5-1.82,0.74-2.86,0.74
				c-1.58,0-2.9-0.53-3.94-1.59c-1.04-1.06-1.56-2.4-1.56-4.03c0-1.61,0.52-2.95,1.56-4.01c1.02-1.07,2.33-1.6,3.93-1.6
				c0.97,0,1.86,0.22,2.67,0.65c0.81,0.43,1.47,1.05,1.97,1.85l-1.12,0.81c-0.15-0.3-0.34-0.58-0.58-0.85
				c-0.26-0.26-0.54-0.48-0.85-0.65c-0.63-0.36-1.33-0.54-2.09-0.54c-1.2,0-2.19,0.41-2.96,1.24c-0.79,0.83-1.18,1.87-1.18,3.12
				c0,1.27,0.39,2.32,1.18,3.13c0.77,0.82,1.76,1.23,2.96,1.23c0.84,0,1.58-0.21,2.23-0.62C159.37,66.2,159.89,65.6,160.31,64.8z"/>
			<path class="st0" d="M163.76,68.21V57.43h1.34v10.78H163.76z"/>
			<path class="st0" d="M166.68,68.21l5.2-10.72h1.09l5.26,10.72h-1.42l-1.45-2.88h-5.86l-1.4,2.88H166.68z M170.09,64.07h4.7
				l-2.36-4.75L170.09,64.07z"/>
			<path class="st0" d="M181.68,68.21v-9.48h-4.45v-1.24h10.25v1.24h-4.46v9.48H181.68z"/>
			<path class="st0" d="M188.06,68.21V57.49h8.34v1.24h-7.02v3.13h4.24v1.26h-4.24v3.85h7.45v1.24H188.06z"/>
			<path class="st0" d="M203.34,57.49c1.68,0,3.02,0.5,4.03,1.49c1.02,0.98,1.53,2.28,1.53,3.89c0,1.62-0.5,2.92-1.51,3.87
				c-1,0.98-2.35,1.47-4.05,1.47h-4.55V57.49H203.34z M203.34,58.73h-3.23v8.24h3.23c1.29,0,2.32-0.37,3.08-1.12
				c0.75-0.73,1.12-1.73,1.12-3c0-1.24-0.37-2.24-1.12-3C205.66,59.1,204.64,58.73,203.34,58.73z"/>
		</g>
	</g>
	<g>
		<g>
			<path class="st1" d="M103.96,73.68h2.75c1.59,0,2.65,0.78,2.65,2.17c0,1.28-0.8,1.79-1.51,1.98c0.94,0.23,1.92,0.9,1.92,2.34
				c0,1.59-1.17,2.68-3.19,2.68h-2.63V73.68z M106.3,77.61c1.59,0,2.26-0.59,2.26-1.7c0-0.99-0.67-1.69-2.04-1.69h-1.79v3.39H106.3z
				 M104.73,82.32h1.8c1.6,0,2.45-0.8,2.45-2.12c0-1.41-1-2.05-2.71-2.05h-1.54V82.32z"/>
			<path class="st1" d="M116.1,81.11c0,0.76,0,1.45,0.02,1.76h-0.72c-0.03-0.19-0.05-0.43-0.05-1.01c-0.26,0.7-1.06,1.13-2.15,1.13
				c-0.86,0-2.17-0.22-2.17-2.01v-4.86h0.78v4.71c0,0.99,0.4,1.62,1.57,1.62c1.09,0,1.96-0.55,1.96-2.26v-4.07h0.78V81.11z"/>
			<path class="st1" d="M117.98,76.12h0.76v6.75h-0.76V76.12z M117.98,73.25h0.76v1.3h-0.76V73.25z"/>
			<path class="st1" d="M120.69,82.87v-9.62h0.76v9.62H120.69z"/>
			<path class="st1" d="M128.37,73.25v7.98c0,0.56,0,1.23,0.02,1.64h-0.74c-0.02-0.18-0.04-0.68-0.04-1.03
				c-0.28,0.66-0.85,1.15-2.12,1.15c-1.79,0-2.59-1.14-2.59-3.58c0-2.21,1.12-3.4,2.82-3.4c1.25,0,1.68,0.44,1.89,0.82v-3.58H128.37
				z M123.69,79.41c0,2.2,0.71,3.01,1.91,3.01c1.55,0,2-1.07,2-3.03c0-2.24-0.48-2.82-1.9-2.82
				C124.54,76.57,123.69,77.42,123.69,79.41z"/>
			<path class="st1" d="M130.26,76.12h0.76v6.75h-0.76V76.12z M130.27,73.25h0.76v1.3h-0.76V73.25z"/>
			<path class="st1" d="M132.92,78.2c0-1.38-0.02-1.79-0.02-2.08h0.74c0.02,0.16,0.04,0.42,0.04,1.01c0.31-0.63,0.95-1.11,2.15-1.11
				c1.15,0,2.24,0.46,2.24,2.05v4.81h-0.78v-4.72c0-0.93-0.46-1.58-1.57-1.58c-1.45,0-2.03,0.77-2.03,2.39v3.91h-0.78V78.2z"/>
			<path class="st1" d="M145.01,82.51c0,1.68-0.44,2.97-2.85,2.97c-2.1,0-2.55-1.13-2.6-1.8h0.79c0.03,0.48,0.44,1.26,1.83,1.26
				c1.71,0,2.07-0.95,2.07-2.43v-0.83c-0.3,0.78-1.08,1.18-2.13,1.18c-1.69,0-2.61-1.08-2.61-3.29c0-2.51,1.21-3.56,2.8-3.56
				c1.2,0,1.77,0.46,1.94,0.99c-0.02-0.36,0.04-0.76,0.05-0.88h0.72c-0.02,0.31-0.02,1-0.02,1.89V82.51z M140.3,79.57
				c0,1.8,0.67,2.74,1.93,2.74c1.57,0,2.03-1.22,2.03-2.87c0-1.83-0.41-2.87-1.9-2.87C141.01,76.57,140.3,77.66,140.3,79.57z"/>
			<path class="st1" d="M155.8,80.41c-0.05,0.58-0.4,2.58-3,2.58c-3.01,0-3.16-2.77-3.16-4.81c0-2.48,0.77-4.62,3.31-4.62
				c2.67,0,2.78,2.06,2.79,2.52h-0.81c-0.02-0.31-0.12-1.93-2-1.93c-2.21,0-2.47,2.43-2.47,4.02c0,2.07,0.31,4.24,2.36,4.24
				c1.78,0,2.1-1.46,2.16-2H155.8z"/>
			<path class="st1" d="M162.49,79.4c0,2.33-0.94,3.59-2.79,3.59c-1.95,0-2.83-1.22-2.83-3.58c0-2.31,1.1-3.4,2.85-3.4
				C161.5,76.01,162.49,77.13,162.49,79.4z M157.66,79.42c0,2.09,0.77,3.02,2.02,3.02c1.28,0,2.02-0.96,2.02-3.05
				c0-1.88-0.7-2.85-2.02-2.85C158.45,76.55,157.66,77.35,157.66,79.42z"/>
			<path class="st1" d="M163.94,78.2c0-1.38-0.02-1.79-0.02-2.08h0.74c0.02,0.16,0.04,0.42,0.04,1.01c0.31-0.63,0.95-1.11,2.15-1.11
				c1.15,0,2.24,0.46,2.24,2.05v4.81h-0.78v-4.72c0-0.93-0.46-1.58-1.57-1.58c-1.45,0-2.03,0.77-2.03,2.39v3.91h-0.78V78.2z"/>
			<path class="st1" d="M169.83,76.12h1.28v-1.87h0.74v1.87h1.63v0.54h-1.63v4.91c0,0.51,0.15,0.85,0.83,0.85
				c0.21,0,0.53-0.01,0.69-0.04v0.49c-0.25,0.07-0.62,0.1-0.9,0.1c-0.78,0-1.37-0.27-1.37-1.24v-5.06h-1.28V76.12z"/>
			<path class="st1" d="M174.42,78.42c0-1.05,0-1.82-0.02-2.31h0.74c0.02,0.21,0.04,0.55,0.04,1.27c0.4-0.85,1.28-1.35,2.31-1.36
				v0.63c-1.54,0.08-2.31,1.08-2.31,2.29v3.92h-0.76V78.42z"/>
			<path class="st1" d="M182.8,81.86c0,0.48,0.05,0.86,0.07,1.01h-0.7c-0.05-0.16-0.09-0.56-0.09-0.86
				c-0.31,0.63-1.02,0.98-2.12,0.98c-1.67,0-2.25-1-2.25-1.92c0-1.14,0.98-2.12,3.31-2.12c0.48,0,0.74,0,1.04,0.03v-1.01
				c0-0.62-0.17-1.42-1.55-1.42c-1.57,0-1.64,0.89-1.69,1.35h-0.76c0.03-0.95,0.63-1.89,2.46-1.89c1.57,0,2.27,0.62,2.27,1.84V81.86
				z M182.08,79.51c-0.23-0.03-0.5-0.04-1-0.04c-1.81,0-2.59,0.68-2.59,1.57c0,0.76,0.53,1.41,1.59,1.41c1.43,0,2-0.77,2-2.46V79.51
				z"/>
			<path class="st1" d="M189.58,80.95c-0.03,0.24-0.24,2.03-2.57,2.03c-2.13,0-2.74-1.57-2.74-3.5c0-1.97,0.82-3.48,2.86-3.48
				c2.31,0,2.45,1.75,2.45,2.01h-0.79c-0.02-0.28-0.19-1.46-1.65-1.46c-1.5,0-2.07,1.26-2.07,2.93c0,1.83,0.6,2.97,1.98,2.97
				c1.47,0,1.67-1.15,1.74-1.49H189.58z"/>
			<path class="st1" d="M190.07,76.12h1.28v-1.87h0.74v1.87h1.63v0.54h-1.63v4.91c0,0.51,0.16,0.85,0.83,0.85
				c0.21,0,0.53-0.01,0.69-0.04v0.49c-0.25,0.07-0.62,0.1-0.89,0.1c-0.78,0-1.37-0.27-1.37-1.24v-5.06h-1.28V76.12z"/>
			<path class="st1" d="M194.73,73.25h0.76v1.3h-0.76V73.25z M194.73,76.12h0.76v6.75h-0.76V76.12z"/>
			<path class="st1" d="M197.39,78.2c0-1.38-0.02-1.79-0.02-2.08h0.74c0.02,0.16,0.04,0.42,0.04,1.01c0.31-0.63,0.95-1.11,2.15-1.11
				c1.15,0,2.24,0.46,2.24,2.05v4.81h-0.78v-4.72c0-0.93-0.46-1.58-1.57-1.58c-1.45,0-2.03,0.77-2.03,2.39v3.91h-0.78V78.2z"/>
			<path class="st1" d="M209.47,82.51c0,1.68-0.44,2.97-2.85,2.97c-2.1,0-2.55-1.13-2.6-1.8h0.79c0.04,0.48,0.45,1.26,1.83,1.26
				c1.71,0,2.07-0.95,2.07-2.43v-0.83c-0.3,0.78-1.08,1.18-2.13,1.18c-1.69,0-2.61-1.08-2.61-3.29c0-2.51,1.21-3.56,2.8-3.56
				c1.2,0,1.77,0.46,1.94,0.99c-0.02-0.36,0.04-0.76,0.05-0.88h0.72c-0.02,0.31-0.02,1-0.02,1.89V82.51z M204.77,79.57
				c0,1.8,0.67,2.74,1.93,2.74c1.57,0,2.03-1.22,2.03-2.87c0-1.83-0.41-2.87-1.9-2.87C205.48,76.57,204.77,77.66,204.77,79.57z"/>
		</g>
	</g>
	<g>
		<polyline class="st2" points="93.89,43.07 96.09,34.56 81.49,32.28 9.37,54.44 2.68,56.51 26.38,65.37 		"/>
		<path class="st2" d="M59.85,76.88l14.26,5.74V65.33c0-46.06,0-53.27,0-53.27L63.38,1.33l-9.14,9.14v50.99
			c0,8.79-0.18,13.71-6.68,11.6c-6.51-2.11-12.48-4.4-12.48-4.4c-4.57-1.93-1.05-4.92,3.34-6.51c3.73-1.34,36.08-11.92,47.38-15.62"
			/>
	</g>
</g>
</svg>
